<mxfile host="app.diagrams.net" modified="2021-03-29T02:54:45.205Z" agent="5.0 (Macintosh; Intel Mac OS X 11_2_3) AppleWebKit/537.36 (KHTML, like Gecko) Chrome/89.0.4389.90 Safari/537.36" etag="dZBHUbGcQGylhSuMUspS" version="14.5.1" type="github">
  <diagram id="U2vncg33ZIXmmu_afpS4" name="第 1 页">
    <mxGraphModel dx="794" dy="537" grid="0" gridSize="10" guides="1" tooltips="1" connect="1" arrows="1" fold="1" page="1" pageScale="1" pageWidth="827" pageHeight="1169" math="0" shadow="0">
      <root>
        <mxCell id="0" />
        <mxCell id="1" parent="0" />
        <mxCell id="6GiBz5EmlGAVJu1b5FWK-1" value="fileKey" style="text;html=1;strokeColor=none;fillColor=none;align=center;verticalAlign=middle;whiteSpace=wrap;rounded=0;" vertex="1" parent="1">
          <mxGeometry x="112" y="167" width="40" height="20" as="geometry" />
        </mxCell>
        <mxCell id="6GiBz5EmlGAVJu1b5FWK-2" value="fileLocalPath" style="text;html=1;strokeColor=none;fillColor=none;align=center;verticalAlign=middle;whiteSpace=wrap;rounded=0;" vertex="1" parent="1">
          <mxGeometry x="129" y="201" width="40" height="20" as="geometry" />
        </mxCell>
        <mxCell id="6GiBz5EmlGAVJu1b5FWK-3" value="fileTargetPath" style="text;html=1;strokeColor=none;fillColor=none;align=center;verticalAlign=middle;whiteSpace=wrap;rounded=0;" vertex="1" parent="1">
          <mxGeometry x="131" y="232" width="40" height="20" as="geometry" />
        </mxCell>
      </root>
    </mxGraphModel>
  </diagram>
</mxfile>
